<svg width="72" height="126" viewBox="0 0 72 126" fill="none" xmlns="http://www.w3.org/2000/svg">
<path fill-rule="evenodd" clip-rule="evenodd" d="M2.77893 126L36.0001 106.387L69.2209 126H2.77893Z" fill="black" fill-opacity="0.2"/>
<path fill-rule="evenodd" clip-rule="evenodd" d="M69.9657 124.681L36.7445 105.069V65.8433L69.9657 124.681Z" fill="black" fill-opacity="0.2"/>
<path fill-rule="evenodd" clip-rule="evenodd" d="M35.2552 65.8433V105.069L2.03406 124.681L35.2552 65.8433Z" fill="black" fill-opacity="0.2"/>
<path fill-rule="evenodd" clip-rule="evenodd" d="M72.0001 63.7632V83.376L38.7789 63.7632H72.0001Z" fill="black" fill-opacity="0.2"/>
<path fill-rule="evenodd" clip-rule="evenodd" d="M38.0341 65.0819L71.2552 84.6947V123.92L38.0341 65.0819Z" fill="black" fill-opacity="0.2"/>
<path fill-rule="evenodd" clip-rule="evenodd" d="M0.744568 123.92V84.6943L33.9657 65.0819L0.744568 123.92Z" fill="black" fill-opacity="0.2"/>
<path fill-rule="evenodd" clip-rule="evenodd" d="M33.2212 63.7632L6.10352e-05 83.3757L0.000421035 63.7632H33.2212Z" fill="black" fill-opacity="0.2"/>
<path fill-rule="evenodd" clip-rule="evenodd" d="M69.2212 0L36 19.6124L2.77924 0H69.2212Z" fill="black" fill-opacity="0.2"/>
<path fill-rule="evenodd" clip-rule="evenodd" d="M2.03442 1.31866L35.2556 20.9311V60.1567L2.03442 1.31866Z" fill="black" fill-opacity="0.2"/>
<path fill-rule="evenodd" clip-rule="evenodd" d="M36.7449 60.1567V20.9315L69.966 1.31866L36.7449 60.1567Z" fill="black" fill-opacity="0.2"/>
<path fill-rule="evenodd" clip-rule="evenodd" d="M0.000421035 62.2364L6.10352e-05 42.624L33.2212 62.2364H0.000421035Z" fill="black" fill-opacity="0.2"/>
<path fill-rule="evenodd" clip-rule="evenodd" d="M33.966 60.9181L0.744873 41.3053V2.07971L33.966 60.9181Z" fill="black" fill-opacity="0.2"/>
<path fill-rule="evenodd" clip-rule="evenodd" d="M71.2556 2.08008V41.3053L38.0344 60.9181L71.2556 2.08008Z" fill="black" fill-opacity="0.2"/>
<path fill-rule="evenodd" clip-rule="evenodd" d="M38.7789 62.2368L72.0001 42.624V62.2368H38.7789Z" fill="black" fill-opacity="0.2"/>
</svg>
