<svg width="66" height="56" viewBox="0 0 66 56" fill="none" xmlns="http://www.w3.org/2000/svg">
<path fill-rule="evenodd" clip-rule="evenodd" d="M14 0C21.732 0 28 6.26801 28 14V14.7966C29.4596 14.2807 31.0304 14 32.6667 14C34.303 14 35.8737 14.2807 37.3333 14.7966V14C37.3333 6.26801 43.6013 0 51.3333 0C59.0653 0 65.3333 6.26801 65.3333 14V51.3333C65.3333 53.9107 63.244 56 60.6667 56C58.0893 56 56 53.9107 56 51.3333V14C56 11.4227 53.9107 9.33333 51.3333 9.33333C48.756 9.33333 46.6667 11.4227 46.6667 14V28V51.3333C46.6667 53.9107 44.5773 56 42 56C39.4227 56 37.3333 53.9107 37.3333 51.3333V28C37.3333 25.4227 35.244 23.3333 32.6667 23.3333C30.0893 23.3333 28 25.4227 28 28V42C28 49.732 21.732 56 14 56C6.26801 56 0 49.732 0 42C0 39.4227 2.08933 37.3333 4.66667 37.3333C7.244 37.3333 9.33333 39.4227 9.33333 42C9.33333 44.5773 11.4227 46.6667 14 46.6667C16.5773 46.6667 18.6667 44.5773 18.6667 42V28V14C18.6667 11.4227 16.5773 9.33333 14 9.33333C11.4227 9.33333 9.33333 7.244 9.33333 4.66667C9.33333 2.08933 11.4227 0 14 0Z" fill="#30BF78"/>
</svg>
