<svg width="70" height="60" viewBox="0 0 70 60" fill="none" xmlns="http://www.w3.org/2000/svg">
<path fill-rule="evenodd" clip-rule="evenodd" d="M49.4178 15.326C49.4178 12.6246 51.5639 10.4347 54.2113 10.4347C56.8587 10.4347 59.0048 12.6246 59.0048 15.326V58.6952C59.0048 59.4156 59.577 59.9996 60.283 59.9996H67.9526C68.6585 59.9996 69.2308 59.4156 69.2308 58.6952V15.326C69.2308 6.86167 62.5063 0 54.2113 0C45.9162 0 39.1918 6.86167 39.1918 15.326V15.4709C37.6864 14.954 36.0744 14.6738 34.3983 14.6738C32.7222 14.6738 31.1102 14.954 29.6048 15.4709V1.30434C29.6048 0.583963 29.0325 0 28.3266 0H20.657C19.9511 0 19.3788 0.583983 19.3788 1.30434V29.9998V44.6736C19.3788 47.375 17.2327 49.5649 14.5853 49.5649V49.5653C14.1598 49.5653 13.7472 49.5087 13.3544 49.4025C13.3435 49.3993 13.3326 49.3962 13.3217 49.3931C11.8107 48.9729 10.5969 47.8173 10.0724 46.3265C9.78991 45.5234 9.00221 44.8825 8.19279 45.0966L0.929428 47.0181C0.285033 47.1886 -0.128973 47.8375 0.0365433 48.4955C1.08006 52.6438 3.78263 56.1133 7.37981 58.124L7.37966 58.1244C9.51875 59.3201 11.9742 60 14.5853 60V59.9996C22.8804 59.9996 29.6048 53.1379 29.6048 44.6736V29.9998C29.6048 27.2984 31.7509 25.1085 34.3983 25.1085C37.0457 25.1085 39.1918 27.2984 39.1918 29.9998V58.6952C39.1918 59.4156 39.764 59.9996 40.47 59.9996H48.1396C48.8455 59.9996 49.4178 59.4156 49.4178 58.6952V29.9998V15.326Z" fill="#30BF78"/>
</svg>
